<?xml version="1.0" encoding="iso-8859-1"?>
<!-- Generator: Adobe Illustrator 19.0.0, SVG Export Plug-In . SVG Version: 6.00 Build 0)  -->
<svg version="1.1" id="Capa_1" xmlns="http://www.w3.org/2000/svg" xmlns:xlink="http://www.w3.org/1999/xlink" x="0px" y="0px"
	 viewBox="0 0 512 512" style="enable-background:new 0 0 512 512;" xml:space="preserve">
<rect x="54.44" y="248.271" style="fill:#E8E9EA;" width="403.13" height="66.25"/>
<rect x="430.84" y="248.271" style="opacity:0.1;enable-background:new    ;" width="26.721" height="66.25"/>
<path style="opacity:0.1;enable-background:new    ;" d="M54.435,248.267v66.251h151.87c-30.81-19.642-37.422-47.488-35.447-66.251
	L54.435,248.267L54.435,248.267z"/>
<path style="fill:#38648C;" d="M494.041,226.993h-26.017c-5.776,0-10.459,4.683-10.459,10.459v68.768
	c0,4.582-3.715,8.297-8.297,8.297H62.732c-4.582,0-8.297-3.715-8.297-8.297V180.984c0-5.777-4.683-10.459-10.459-10.459H17.959
	c-5.776,0-10.459,4.683-10.459,10.459v141.74c0,16.332,13.24,29.573,29.572,29.573h437.855c16.332,0,29.572-13.24,29.572-29.572
	v-85.272C504.5,231.676,499.817,226.993,494.041,226.993z"/>
<path style="fill:#76B7EB;" d="M167.089,248.816H95.75c-6.478,0-12.481-3.402-15.808-8.961l-3.01-5.029
	c-2.609-4.359-2.609-9.8,0-14.159l3.01-5.029c3.327-5.559,9.33-8.961,15.808-8.961h71.338c6.478,0,12.481,3.403,15.808,8.961
	l3.01,5.029c2.609,4.359,2.609,9.8,0,14.159l-3.01,5.029C179.569,245.413,173.567,248.816,167.089,248.816z"/>
<path style="fill:#38648C;" d="M417.868,400.764H94.132c-4.142,0-7.5-3.358-7.5-7.5s3.358-7.5,7.5-7.5h323.736
	c4.143,0,7.5,3.358,7.5,7.5S422.011,400.764,417.868,400.764z"/>
<rect x="68.18" y="352.301" style="fill:#76B7EB;" width="25.952" height="72.63"/>
<rect x="68.18" y="352.301" style="opacity:0.15;enable-background:new    ;" width="25.952" height="23.03"/>
<circle style="fill:#495059;" cx="81.16" cy="442.671" r="25.11"/>
<g>
	<circle style="fill:#76B7EB;" cx="81.16" cy="442.671" r="7.284"/>
	<rect x="417.87" y="352.301" style="fill:#76B7EB;" width="25.952" height="72.63"/>
</g>
<rect x="417.87" y="352.301" style="opacity:0.15;enable-background:new    ;" width="25.952" height="23.03"/>
<circle style="fill:#495059;" cx="430.84" cy="442.671" r="25.11"/>
<circle style="fill:#76B7EB;" cx="430.84" cy="442.671" r="7.284"/>
<path style="opacity:0.1;enable-background:new    ;" d="M182.231,314.518H62.732c-4.582,0-8.297-3.715-8.297-8.297V180.984
	c0-5.777-4.683-10.459-10.459-10.459H17.959c-5.776,0-10.459,4.683-10.459,10.459v141.74c0,16.332,13.24,29.572,29.572,29.572
	h181.316C197.469,342.243,186.895,327.477,182.231,314.518z"/>
<path style="opacity:0.1;enable-background:new    ;" d="M95.75,206.678c-6.478,0-12.481,3.403-15.808,8.961l-3.01,5.029
	c-2.609,4.359-2.609,9.8,0,14.159l3.01,5.029c3.327,5.559,9.33,8.961,15.808,8.961h28.335c-18.658-7.58-19.635-30.699-14.216-42.138
	H95.75V206.678z"/>
<circle style="fill:#F28B74;" cx="256" cy="109.131" r="64.907"/>
<path style="fill:#FFFFFF;" d="M269.265,93.266V73.535c0-1.811-1.468-3.279-3.279-3.279h-19.972c-1.811,0-3.279,1.468-3.279,3.279
	v19.731c0,1.437-1.165,2.602-2.602,2.602h-19.731c-1.811,0-3.279,1.468-3.279,3.279v19.972c0,1.811,1.468,3.279,3.279,3.279h19.731
	c1.437,0,2.602,1.165,2.602,2.602v19.731c0,1.811,1.468,3.279,3.279,3.279h19.972c1.811,0,3.279-1.468,3.279-3.279v-19.731
	c0-1.437,1.165-2.602,2.602-2.602h19.731c1.811,0,3.279-1.468,3.279-3.279V99.147c0-1.811-1.468-3.279-3.279-3.279h-19.731
	C270.43,95.868,269.265,94.703,269.265,93.266z"/>
<path d="M504.5,249.768c4.143,0,7.5-3.358,7.5-7.5v-4.815c0-9.903-8.057-17.959-17.959-17.959h-26.017
	c-9.903,0-17.96,8.056-17.96,17.959v3.314h-56.897l-5.856-13.136c-5.228-11.73-16.906-19.311-29.75-19.311H275.49
	c-10.088,0-19.438,4.557-25.654,12.503c-4.536,5.799-6.907,12.785-6.92,19.943h-51.825l1.251-2.089
	c4.035-6.742,4.035-15.119-0.001-21.862l-3.01-5.028c-4.655-7.777-13.179-12.609-22.243-12.609H95.75
	c-9.064,0-17.588,4.831-22.242,12.608l-3.012,5.029c-4.036,6.743-4.036,15.12,0.001,21.863l1.25,2.088h-9.811v-59.781
	c0-9.903-8.057-17.96-17.96-17.96H17.959C8.057,163.025,0,171.081,0,180.984v141.74c0,20.442,16.631,37.072,37.072,37.072H60.68
	v57.525c-7.391,5.982-12.129,15.12-12.129,25.348c0,17.979,14.627,32.605,32.606,32.605s32.604-14.626,32.604-32.605
	c0-10.228-4.737-19.366-12.129-25.348v-16.559h308.736v16.559c-7.392,5.982-12.129,15.121-12.129,25.348
	c0,17.979,14.626,32.605,32.605,32.605c17.978,0,32.605-14.626,32.605-32.605c0-10.228-4.737-19.366-12.129-25.348v-57.525h23.607
	c20.441,0,37.072-16.63,37.072-37.072v-46.134c0-4.142-3.357-7.5-7.5-7.5s-7.5,3.358-7.5,7.5v46.134
	c0,12.171-9.901,22.072-22.072,22.072H146.199c-4.143,0-7.5,3.358-7.5,7.5s3.357,7.5,7.5,7.5h264.169v25.966H101.632v-25.966h9.15
	c4.143,0,7.5-3.358,7.5-7.5s-3.357-7.5-7.5-7.5h-73.71c-12.171,0-22.072-9.901-22.072-22.072v-141.74c0-1.632,1.327-2.96,2.959-2.96
	h26.017c1.632,0,2.96,1.328,2.96,2.96v125.236c0,8.711,7.087,15.797,15.797,15.797h205.165c0.008,0,0.015,0.002,0.023,0.002
	c0.011,0,0.022-0.002,0.032-0.002h66.887c0.006,0,0.011,0.001,0.017,0.001c0.009,0,0.018-0.001,0.026-0.001h114.384
	c8.71,0,15.797-7.086,15.797-15.797v-68.768c0-1.632,1.328-2.959,2.96-2.959h26.017c1.632,0,2.959,1.327,2.959,2.959v4.815
	C497,246.41,500.357,249.768,504.5,249.768z M425.368,359.797h10.952v50.738c-1.782-0.303-3.61-0.469-5.477-0.469
	s-3.694,0.166-5.476,0.469v-50.738H425.368z M430.844,425.066c9.708,0,17.605,7.897,17.605,17.605s-7.897,17.605-17.605,17.605
	c-9.707,0-17.605-7.897-17.605-17.605C413.239,432.963,421.137,425.066,430.844,425.066z M75.68,359.797h10.952v50.737
	c-1.782-0.303-3.609-0.469-5.475-0.469c-1.867,0-3.695,0.166-5.477,0.469C75.68,410.534,75.68,359.797,75.68,359.797z
	 M81.156,425.066c9.707,0,17.604,7.897,17.604,17.605s-7.897,17.605-17.604,17.605c-9.708,0-17.606-7.897-17.606-17.605
	C63.551,432.963,71.448,425.066,81.156,425.066z M261.65,230.064c3.354-4.287,8.398-6.745,13.84-6.745h30.828l3.989,17.446h-52.389
	C257.937,236.924,259.215,233.178,261.65,230.064z M83.366,224.52l3.012-5.029c1.961-3.277,5.553-5.313,9.372-5.313h71.339
	c3.819,0,7.411,2.036,9.373,5.313l3.01,5.027c1.191,1.991,1.191,4.465,0.001,6.455l-3.012,5.029
	c-1.372,2.293-3.55,3.958-6.038,4.764H92.416c-2.488-0.805-4.667-2.471-6.039-4.764l-3.01-5.028
	C82.175,228.982,82.175,226.51,83.366,224.52z M62.732,307.018c-0.439,0-0.797-0.357-0.797-0.797v-50.454h28.571
	c1.711,0.357,3.466,0.549,5.243,0.549h71.339c1.778,0,3.532-0.192,5.243-0.549h73.289l12.717,51.251H62.732z M273.793,307.018
	l-12.717-51.251h52.661l11.719,51.251H273.793z M321.705,223.32h35.856c6.929,0,13.229,4.089,16.049,10.417l3.133,7.029h-51.049
	L321.705,223.32z M392.645,307.018h-51.801l-11.719-51.251h54.306l0.411,0.921c5.842,13.104,8.804,27.022,8.804,41.368v8.962
	H392.645z M450.065,306.221c0,0.44-0.358,0.797-0.797,0.797h-41.623v-8.962c0-14.585-2.673-28.783-7.942-42.289h50.362
	L450.065,306.221L450.065,306.221z M256,181.538c39.925,0,72.406-32.482,72.406-72.406c0-39.925-32.482-72.407-72.406-72.407
	s-72.406,32.481-72.406,72.407C183.594,149.058,216.075,181.538,256,181.538z M256,51.726c31.654,0,57.406,25.752,57.406,57.407
	c0,31.654-25.752,57.406-57.406,57.406s-57.406-25.753-57.406-57.406C198.594,77.479,224.346,51.726,256,51.726z"/>
<g>
</g>
<g>
</g>
<g>
</g>
<g>
</g>
<g>
</g>
<g>
</g>
<g>
</g>
<g>
</g>
<g>
</g>
<g>
</g>
<g>
</g>
<g>
</g>
<g>
</g>
<g>
</g>
<g>
</g>
</svg>
