<?xml version="1.0"?>
<svg xmlns="http://www.w3.org/2000/svg" xmlns:xlink="http://www.w3.org/1999/xlink" xmlns:svgjs="http://svgjs.com/svgjs" version="1.1" width="512" height="512" x="0" y="0" viewBox="0 0 512 512" style="enable-background:new 0 0 512 512" xml:space="preserve" class=""><g><g xmlns="http://www.w3.org/2000/svg"><g><circle cx="256" cy="256" fill="#001fc6" r="256" data-original="#07e5ca" style="" class=""/></g><path d="m508.074 300.88-151.91-153.562-148.457 20.583-45.467 225.194 117.775 117.775c115.173-10.718 208.204-97.715 228.059-209.99z" fill="#001fc6" data-original="#00b59b" style="" class=""/><path d="m320.94 292.065c34.46-12.34 59.19-45.33 59.19-83.98 0-49.17-40-89.18-89.17-89.18h-128.72v274.19h58v-95.84h35.1l61.55 95.84h68.93zm-29.98-52.81h-70.72v-62.35h70.72c17.18 0 31.17 13.99 31.17 31.18s-13.99 31.17-31.17 31.17z" fill="#f8fffb" data-original="#f8fffb" style="" class=""/><path d="m320.94 292.06c34.46-12.34 59.19-45.32 59.19-83.98 0-49.17-40-89.18-89.17-89.18h-34.96v58h34.96c17.18 0 31.17 14 31.17 31.18 0 17.2-13.99 31.18-31.17 31.18h-34.96v59.03l60.89 94.81h68.93z" fill="#f8fffb" data-original="#d8d8d8" style="" class=""/></g></g></svg>
